{
	"patcher" : 	{
		"fileversion" : 1,
		"appversion" : 		{
			"major" : 9,
			"minor" : 0,
			"revision" : 3,
			"architecture" : "x64",
			"modernui" : 1
		}
,
		"classnamespace" : "box",
		"rect" : [ 134.0, 134.0, 1514.0, 921.0 ],
		"gridsize" : [ 15.0, 15.0 ],
		"boxes" : [ 			{
				"box" : 				{
					"id" : "obj-39",
					"maxclass" : "newobj",
					"numinlets" : 2,
					"numoutlets" : 4,
					"outlettype" : [ "int", "int", "int", "list" ],
					"patching_rect" : [ 1248.0, 848.0, 50.5, 22.0 ],
					"text" : "poly"
				}

			}
, 			{
				"box" : 				{
					"id" : "obj-5",
					"maxclass" : "newobj",
					"numinlets" : 3,
					"numoutlets" : 2,
					"outlettype" : [ "float", "float" ],
					"patching_rect" : [ 1200.0, 742.0, 132.0, 22.0 ],
					"text" : "makenote"
				}

			}
, 			{
				"box" : 				{
					"id" : "obj-37",
					"maxclass" : "dict.view",
					"numinlets" : 1,
					"numoutlets" : 0,
					"patching_rect" : [ 1108.0, 1024.0, 118.0, 100.0 ]
				}

			}
, 			{
				"box" : 				{
					"id" : "obj-38",
					"maxclass" : "newobj",
					"numinlets" : 1,
					"numoutlets" : 1,
					"outlettype" : [ "" ],
					"patching_rect" : [ 1108.0, 990.0, 107.0, 22.0 ],
					"text" : "prepend dictionary"
				}

			}
, 			{
				"box" : 				{
					"id" : "obj-35",
					"maxclass" : "dict.view",
					"numinlets" : 1,
					"numoutlets" : 0,
					"patching_rect" : [ 986.0, 1024.0, 118.0, 100.0 ]
				}

			}
, 			{
				"box" : 				{
					"id" : "obj-36",
					"maxclass" : "newobj",
					"numinlets" : 1,
					"numoutlets" : 1,
					"outlettype" : [ "" ],
					"patching_rect" : [ 986.0, 990.0, 107.0, 22.0 ],
					"text" : "prepend dictionary"
				}

			}
, 			{
				"box" : 				{
					"id" : "obj-32",
					"maxclass" : "dict.view",
					"numinlets" : 1,
					"numoutlets" : 0,
					"patching_rect" : [ 863.0, 1024.0, 118.0, 100.0 ]
				}

			}
, 			{
				"box" : 				{
					"id" : "obj-33",
					"maxclass" : "newobj",
					"numinlets" : 1,
					"numoutlets" : 1,
					"outlettype" : [ "" ],
					"patching_rect" : [ 863.0, 990.0, 107.0, 22.0 ],
					"text" : "prepend dictionary"
				}

			}
, 			{
				"box" : 				{
					"id" : "obj-30",
					"maxclass" : "dict.view",
					"numinlets" : 1,
					"numoutlets" : 0,
					"patching_rect" : [ 741.0, 1024.0, 118.0, 100.0 ]
				}

			}
, 			{
				"box" : 				{
					"id" : "obj-31",
					"maxclass" : "newobj",
					"numinlets" : 1,
					"numoutlets" : 1,
					"outlettype" : [ "" ],
					"patching_rect" : [ 741.0, 990.0, 107.0, 22.0 ],
					"text" : "prepend dictionary"
				}

			}
, 			{
				"box" : 				{
					"id" : "obj-28",
					"maxclass" : "dict.view",
					"numinlets" : 1,
					"numoutlets" : 0,
					"patching_rect" : [ 618.0, 1024.0, 118.0, 100.0 ]
				}

			}
, 			{
				"box" : 				{
					"id" : "obj-29",
					"maxclass" : "newobj",
					"numinlets" : 1,
					"numoutlets" : 1,
					"outlettype" : [ "" ],
					"patching_rect" : [ 618.0, 990.0, 107.0, 22.0 ],
					"text" : "prepend dictionary"
				}

			}
, 			{
				"box" : 				{
					"id" : "obj-26",
					"maxclass" : "dict.view",
					"numinlets" : 1,
					"numoutlets" : 0,
					"patching_rect" : [ 496.0, 1024.0, 118.0, 100.0 ]
				}

			}
, 			{
				"box" : 				{
					"id" : "obj-27",
					"maxclass" : "newobj",
					"numinlets" : 1,
					"numoutlets" : 1,
					"outlettype" : [ "" ],
					"patching_rect" : [ 496.0, 990.0, 107.0, 22.0 ],
					"text" : "prepend dictionary"
				}

			}
, 			{
				"box" : 				{
					"id" : "obj-24",
					"maxclass" : "dict.view",
					"numinlets" : 1,
					"numoutlets" : 0,
					"patching_rect" : [ 373.0, 1024.0, 118.0, 100.0 ]
				}

			}
, 			{
				"box" : 				{
					"id" : "obj-25",
					"maxclass" : "newobj",
					"numinlets" : 1,
					"numoutlets" : 1,
					"outlettype" : [ "" ],
					"patching_rect" : [ 373.0, 990.0, 107.0, 22.0 ],
					"text" : "prepend dictionary"
				}

			}
, 			{
				"box" : 				{
					"id" : "obj-22",
					"maxclass" : "dict.view",
					"numinlets" : 1,
					"numoutlets" : 0,
					"patching_rect" : [ 251.0, 1024.0, 118.0, 100.0 ]
				}

			}
, 			{
				"box" : 				{
					"id" : "obj-23",
					"maxclass" : "newobj",
					"numinlets" : 1,
					"numoutlets" : 1,
					"outlettype" : [ "" ],
					"patching_rect" : [ 251.0, 990.0, 107.0, 22.0 ],
					"text" : "prepend dictionary"
				}

			}
, 			{
				"box" : 				{
					"id" : "obj-20",
					"maxclass" : "dict.view",
					"numinlets" : 1,
					"numoutlets" : 0,
					"patching_rect" : [ 128.0, 1024.0, 118.0, 100.0 ]
				}

			}
, 			{
				"box" : 				{
					"id" : "obj-21",
					"maxclass" : "newobj",
					"numinlets" : 1,
					"numoutlets" : 1,
					"outlettype" : [ "" ],
					"patching_rect" : [ 128.0, 990.0, 107.0, 22.0 ],
					"text" : "prepend dictionary"
				}

			}
, 			{
				"box" : 				{
					"id" : "obj-19",
					"maxclass" : "dict.view",
					"numinlets" : 1,
					"numoutlets" : 0,
					"patching_rect" : [ 5.0, 1024.0, 118.0, 100.0 ]
				}

			}
, 			{
				"box" : 				{
					"id" : "obj-18",
					"maxclass" : "newobj",
					"numinlets" : 1,
					"numoutlets" : 1,
					"outlettype" : [ "" ],
					"patching_rect" : [ 5.0, 990.0, 107.0, 22.0 ],
					"text" : "prepend dictionary"
				}

			}
, 			{
				"box" : 				{
					"id" : "obj-17",
					"maxclass" : "newobj",
					"numinlets" : 2,
					"numoutlets" : 2,
					"outlettype" : [ "", "" ],
					"patching_rect" : [ 514.0, 904.0, 54.0, 22.0 ],
					"text" : "zl.nth 20"
				}

			}
, 			{
				"box" : 				{
					"id" : "obj-15",
					"maxclass" : "newobj",
					"numinlets" : 2,
					"numoutlets" : 2,
					"outlettype" : [ "", "" ],
					"patching_rect" : [ 455.0, 904.0, 54.0, 22.0 ],
					"text" : "zl.nth 18"
				}

			}
, 			{
				"box" : 				{
					"id" : "obj-14",
					"maxclass" : "newobj",
					"numinlets" : 2,
					"numoutlets" : 2,
					"outlettype" : [ "", "" ],
					"patching_rect" : [ 396.0, 904.0, 54.0, 22.0 ],
					"text" : "zl.nth 16"
				}

			}
, 			{
				"box" : 				{
					"id" : "obj-13",
					"maxclass" : "newobj",
					"numinlets" : 2,
					"numoutlets" : 2,
					"outlettype" : [ "", "" ],
					"patching_rect" : [ 337.0, 904.0, 54.0, 22.0 ],
					"text" : "zl.nth 14"
				}

			}
, 			{
				"box" : 				{
					"id" : "obj-12",
					"maxclass" : "newobj",
					"numinlets" : 2,
					"numoutlets" : 2,
					"outlettype" : [ "", "" ],
					"patching_rect" : [ 277.0, 904.0, 54.0, 22.0 ],
					"text" : "zl.nth 12"
				}

			}
, 			{
				"box" : 				{
					"id" : "obj-11",
					"maxclass" : "newobj",
					"numinlets" : 2,
					"numoutlets" : 2,
					"outlettype" : [ "", "" ],
					"patching_rect" : [ 217.0, 904.0, 54.0, 22.0 ],
					"text" : "zl.nth 10"
				}

			}
, 			{
				"box" : 				{
					"id" : "obj-9",
					"maxclass" : "newobj",
					"numinlets" : 2,
					"numoutlets" : 2,
					"outlettype" : [ "", "" ],
					"patching_rect" : [ 164.0, 904.0, 47.0, 22.0 ],
					"text" : "zl.nth 8"
				}

			}
, 			{
				"box" : 				{
					"id" : "obj-8",
					"maxclass" : "newobj",
					"numinlets" : 2,
					"numoutlets" : 2,
					"outlettype" : [ "", "" ],
					"patching_rect" : [ 111.0, 904.0, 47.0, 22.0 ],
					"text" : "zl.nth 6"
				}

			}
, 			{
				"box" : 				{
					"id" : "obj-7",
					"maxclass" : "newobj",
					"numinlets" : 2,
					"numoutlets" : 2,
					"outlettype" : [ "", "" ],
					"patching_rect" : [ 58.0, 904.0, 47.0, 22.0 ],
					"text" : "zl.nth 4"
				}

			}
, 			{
				"box" : 				{
					"id" : "obj-6",
					"maxclass" : "newobj",
					"numinlets" : 2,
					"numoutlets" : 2,
					"outlettype" : [ "", "" ],
					"patching_rect" : [ 5.0, 904.0, 47.0, 22.0 ],
					"text" : "zl.nth 2"
				}

			}
, 			{
				"box" : 				{
					"fontsize" : 20.0,
					"id" : "obj-3",
					"linecount" : 3,
					"maxclass" : "comment",
					"numinlets" : 1,
					"numoutlets" : 0,
					"patching_rect" : [ 1061.0, 12.0, 244.0, 75.0 ],
					"text" : "TODOs:\n\n1) add ui for quantizer"
				}

			}
, 			{
				"box" : 				{
					"id" : "obj-10",
					"maxclass" : "dict.view",
					"numinlets" : 1,
					"numoutlets" : 0,
					"patching_rect" : [ 889.0, 95.0, 331.0, 534.0 ]
				}

			}
, 			{
				"box" : 				{
					"id" : "obj-16",
					"maxclass" : "button",
					"numinlets" : 1,
					"numoutlets" : 1,
					"outlettype" : [ "bang" ],
					"parameter_enable" : 0,
					"patching_rect" : [ 889.0, 12.0, 30.0, 30.0 ]
				}

			}
, 			{
				"box" : 				{
					"data" : 					{
						"0" : [ 							{
								"pitch" : 								{
									"octave" : 4,
									"note" : "C"
								}
,
								"A" : 0.1,
								"D" : 0.3,
								"S" : 0.7,
								"R" : 0.2
							}
 ],
						"1" : [ 							{
								"pitch" : 								{
									"octave" : 4,
									"note" : "D"
								}
,
								"A" : 0.1,
								"D" : 0.35,
								"S" : 0.6,
								"R" : 0.25
							}
 ],
						"2" : [ 							{
								"pitch" : 								{
									"octave" : 4,
									"note" : "E"
								}
,
								"A" : 0.08,
								"D" : 0.4,
								"S" : 0.65,
								"R" : 0.3
							}
 ],
						"3" : [ 							{
								"pitch" : 								{
									"octave" : 4,
									"note" : "F"
								}
,
								"A" : 0.12,
								"D" : 0.25,
								"S" : 0.75,
								"R" : 0.18
							}
 ],
						"4" : [ 							{
								"pitch" : 								{
									"octave" : 4,
									"note" : "G"
								}
,
								"A" : 0.15,
								"D" : 0.3,
								"S" : 0.8,
								"R" : 0.22
							}
 ],
						"5" : [ 							{
								"pitch" : 								{
									"octave" : 4,
									"note" : "A"
								}
,
								"A" : 0.09,
								"D" : 0.35,
								"S" : 0.7,
								"R" : 0.28
							}
 ],
						"6" : [ 							{
								"pitch" : 								{
									"octave" : 4,
									"note" : "B"
								}
,
								"A" : 0.11,
								"D" : 0.4,
								"S" : 0.65,
								"R" : 0.32
							}
 ],
						"7" : [ 							{
								"pitch" : 								{
									"octave" : 5,
									"note" : "C"
								}
,
								"A" : 0.07,
								"D" : 0.2,
								"S" : 0.85,
								"R" : 0.15
							}
 ],
						"8" : [ 							{
								"pitch" : 								{
									"octave" : 5,
									"note" : "D"
								}
,
								"A" : 0.13,
								"D" : 0.3,
								"S" : 0.75,
								"R" : 0.2
							}
 ],
						"9" : [ 							{
								"pitch" : 								{
									"octave" : 5,
									"note" : "E"
								}
,
								"A" : 0.1,
								"D" : 0.35,
								"S" : 0.7,
								"R" : 0.25
							}
 ],
						"10" : [ 							{
								"pitch" : 								{
									"octave" : 5,
									"note" : "F"
								}
,
								"A" : 0.08,
								"D" : 0.25,
								"S" : 0.8,
								"R" : 0.18
							}
 ],
						"11" : [ 							{
								"pitch" : 								{
									"octave" : 5,
									"note" : "G"
								}
,
								"A" : 0.12,
								"D" : 0.4,
								"S" : 0.7,
								"R" : 0.22
							}
 ],
						"12" : [ 							{
								"pitch" : 								{
									"octave" : 5,
									"note" : "A"
								}
,
								"A" : 0.1,
								"D" : 0.3,
								"S" : 0.75,
								"R" : 0.25
							}
 ],
						"13" : [ 							{
								"pitch" : 								{
									"octave" : 5,
									"note" : "B"
								}
,
								"A" : 0.09,
								"D" : 0.35,
								"S" : 0.65,
								"R" : 0.3
							}
 ],
						"14" : [ 							{
								"pitch" : 								{
									"octave" : 6,
									"note" : "C"
								}
,
								"A" : 0.05,
								"D" : 0.2,
								"S" : 0.9,
								"R" : 0.1
							}
 ],
						"15" : [ 							{
								"pitch" : 								{
									"octave" : 6,
									"note" : "D"
								}
,
								"A" : 0.1,
								"D" : 0.25,
								"S" : 0.8,
								"R" : 0.2
							}
 ],
						"16" : [ 							{
								"pitch" : 								{
									"octave" : 6,
									"note" : "E"
								}
,
								"A" : 0.07,
								"D" : 0.3,
								"S" : 0.75,
								"R" : 0.25
							}
 ],
						"17" : [ 							{
								"pitch" : 								{
									"octave" : 6,
									"note" : "F"
								}
,
								"A" : 0.12,
								"D" : 0.35,
								"S" : 0.7,
								"R" : 0.18
							}
 ],
						"18" : [ 							{
								"pitch" : 								{
									"octave" : 6,
									"note" : "G"
								}
,
								"A" : 0.1,
								"D" : 0.4,
								"S" : 0.65,
								"R" : 0.22
							}
 ],
						"19" : [ 							{
								"pitch" : 								{
									"octave" : 6,
									"note" : "A"
								}
,
								"A" : 0.08,
								"D" : 0.3,
								"S" : 0.8,
								"R" : 0.28
							}
 ],
						"20" : [ 							{
								"pitch" : 								{
									"octave" : 7,
									"note" : "B"
								}
,
								"A" : 0.06,
								"D" : 0.25,
								"S" : 0.85,
								"R" : 0.15
							}
 ],
						"21" : [ 							{
								"pitch" : 								{
									"octave" : 7,
									"note" : "C"
								}
,
								"A" : 0.04,
								"D" : 0.2,
								"S" : 0.9,
								"R" : 0.12
							}
 ],
						"22" : [ 							{
								"pitch" : 								{
									"octave" : 7,
									"note" : "D"
								}
,
								"A" : 0.09,
								"D" : 0.3,
								"S" : 0.75,
								"R" : 0.2
							}
 ],
						"23" : [ 							{
								"pitch" : 								{
									"octave" : 7,
									"note" : "E"
								}
,
								"A" : 0.11,
								"D" : 0.35,
								"S" : 0.7,
								"R" : 0.25
							}
 ],
						"24" : [ 							{
								"pitch" : 								{
									"octave" : 7,
									"note" : "F"
								}
,
								"A" : 0.1,
								"D" : 0.4,
								"S" : 0.65,
								"R" : 0.3
							}
 ]
					}
,
					"id" : "obj-34",
					"maxclass" : "newobj",
					"numinlets" : 2,
					"numoutlets" : 5,
					"outlettype" : [ "dictionary", "", "", "", "" ],
					"patching_rect" : [ 889.0, 55.0, 158.0, 22.0 ],
					"saved_object_attributes" : 					{
						"embed" : 1,
						"legacy" : 0,
						"parameter_enable" : 0,
						"parameter_mappable" : 0
					}
,
					"text" : "dict quant @embed 1"
				}

			}
, 			{
				"box" : 				{
					"bgmode" : 0,
					"border" : 0,
					"clickthrough" : 0,
					"enablehscroll" : 0,
					"enablevscroll" : 0,
					"id" : "obj-1",
					"lockeddragscroll" : 0,
					"lockedsize" : 0,
					"maxclass" : "bpatcher",
					"name" : "logosAndXenix.maxpat",
					"numinlets" : 1,
					"numoutlets" : 1,
					"offset" : [ 0.0, 0.0 ],
					"outlettype" : [ "" ],
					"patching_rect" : [ 5.0, 12.0, 863.0, 815.0 ],
					"viewvisibility" : 1
				}

			}
 ],
		"lines" : [ 			{
				"patchline" : 				{
					"destination" : [ "obj-11", 0 ],
					"midpoints" : [ 226.5, 902.5 ],
					"order" : 5,
					"source" : [ "obj-1", 0 ]
				}

			}
, 			{
				"patchline" : 				{
					"destination" : [ "obj-12", 0 ],
					"midpoints" : [ 286.5, 902.5 ],
					"order" : 4,
					"source" : [ "obj-1", 0 ]
				}

			}
, 			{
				"patchline" : 				{
					"destination" : [ "obj-13", 0 ],
					"midpoints" : [ 346.5, 902.5 ],
					"order" : 3,
					"source" : [ "obj-1", 0 ]
				}

			}
, 			{
				"patchline" : 				{
					"destination" : [ "obj-14", 0 ],
					"midpoints" : [ 405.5, 902.5 ],
					"order" : 2,
					"source" : [ "obj-1", 0 ]
				}

			}
, 			{
				"patchline" : 				{
					"destination" : [ "obj-15", 0 ],
					"midpoints" : [ 464.5, 902.5 ],
					"order" : 1,
					"source" : [ "obj-1", 0 ]
				}

			}
, 			{
				"patchline" : 				{
					"destination" : [ "obj-17", 0 ],
					"midpoints" : [ 523.5, 905.5 ],
					"order" : 0,
					"source" : [ "obj-1", 0 ]
				}

			}
, 			{
				"patchline" : 				{
					"destination" : [ "obj-6", 0 ],
					"midpoints" : [ 14.5, 902.5, 14.5, 902.5 ],
					"order" : 9,
					"source" : [ "obj-1", 0 ]
				}

			}
, 			{
				"patchline" : 				{
					"destination" : [ "obj-7", 0 ],
					"midpoints" : [ 67.5, 902.5 ],
					"order" : 8,
					"source" : [ "obj-1", 0 ]
				}

			}
, 			{
				"patchline" : 				{
					"destination" : [ "obj-8", 0 ],
					"midpoints" : [ 120.5, 902.5 ],
					"order" : 7,
					"source" : [ "obj-1", 0 ]
				}

			}
, 			{
				"patchline" : 				{
					"destination" : [ "obj-9", 0 ],
					"midpoints" : [ 173.5, 902.5 ],
					"order" : 6,
					"source" : [ "obj-1", 0 ]
				}

			}
, 			{
				"patchline" : 				{
					"destination" : [ "obj-27", 0 ],
					"midpoints" : [ 505.5, 988.0 ],
					"source" : [ "obj-11", 0 ]
				}

			}
, 			{
				"patchline" : 				{
					"destination" : [ "obj-29", 0 ],
					"midpoints" : [ 627.5, 987.0 ],
					"source" : [ "obj-12", 0 ]
				}

			}
, 			{
				"patchline" : 				{
					"destination" : [ "obj-31", 0 ],
					"midpoints" : [ 750.5, 989.0 ],
					"source" : [ "obj-13", 0 ]
				}

			}
, 			{
				"patchline" : 				{
					"destination" : [ "obj-33", 0 ],
					"midpoints" : [ 872.5, 986.0 ],
					"source" : [ "obj-14", 0 ]
				}

			}
, 			{
				"patchline" : 				{
					"destination" : [ "obj-36", 0 ],
					"midpoints" : [ 995.5, 984.0 ],
					"source" : [ "obj-15", 0 ]
				}

			}
, 			{
				"patchline" : 				{
					"destination" : [ "obj-34", 0 ],
					"source" : [ "obj-16", 0 ]
				}

			}
, 			{
				"patchline" : 				{
					"destination" : [ "obj-38", 0 ],
					"midpoints" : [ 1117.5, 986.0 ],
					"source" : [ "obj-17", 0 ]
				}

			}
, 			{
				"patchline" : 				{
					"destination" : [ "obj-19", 0 ],
					"source" : [ "obj-18", 0 ]
				}

			}
, 			{
				"patchline" : 				{
					"destination" : [ "obj-20", 0 ],
					"source" : [ "obj-21", 0 ]
				}

			}
, 			{
				"patchline" : 				{
					"destination" : [ "obj-22", 0 ],
					"source" : [ "obj-23", 0 ]
				}

			}
, 			{
				"patchline" : 				{
					"destination" : [ "obj-24", 0 ],
					"source" : [ "obj-25", 0 ]
				}

			}
, 			{
				"patchline" : 				{
					"destination" : [ "obj-26", 0 ],
					"source" : [ "obj-27", 0 ]
				}

			}
, 			{
				"patchline" : 				{
					"destination" : [ "obj-28", 0 ],
					"source" : [ "obj-29", 0 ]
				}

			}
, 			{
				"patchline" : 				{
					"destination" : [ "obj-30", 0 ],
					"source" : [ "obj-31", 0 ]
				}

			}
, 			{
				"patchline" : 				{
					"destination" : [ "obj-32", 0 ],
					"source" : [ "obj-33", 0 ]
				}

			}
, 			{
				"patchline" : 				{
					"destination" : [ "obj-10", 0 ],
					"source" : [ "obj-34", 0 ]
				}

			}
, 			{
				"patchline" : 				{
					"destination" : [ "obj-35", 0 ],
					"source" : [ "obj-36", 0 ]
				}

			}
, 			{
				"patchline" : 				{
					"destination" : [ "obj-37", 0 ],
					"source" : [ "obj-38", 0 ]
				}

			}
, 			{
				"patchline" : 				{
					"destination" : [ "obj-18", 0 ],
					"source" : [ "obj-6", 0 ]
				}

			}
, 			{
				"patchline" : 				{
					"destination" : [ "obj-21", 0 ],
					"midpoints" : [ 137.5, 987.0 ],
					"source" : [ "obj-7", 0 ]
				}

			}
, 			{
				"patchline" : 				{
					"destination" : [ "obj-23", 0 ],
					"midpoints" : [ 260.5, 988.0 ],
					"source" : [ "obj-8", 0 ]
				}

			}
, 			{
				"patchline" : 				{
					"destination" : [ "obj-25", 0 ],
					"midpoints" : [ 382.5, 988.0 ],
					"source" : [ "obj-9", 0 ]
				}

			}
 ],
		"originid" : "pat-54",
		"dependency_cache" : [ 			{
				"name" : "logosAndXenix.maxpat",
				"bootpath" : "~/Documents/Max 9/Projects/Gamelan/src/patchers",
				"patcherrelativepath" : ".",
				"type" : "JSON",
				"implicit" : 1
			}
, 			{
				"name" : "main.js",
				"bootpath" : "~/Documents/Max 9/Projects/Gamelan/dist",
				"patcherrelativepath" : "../../dist",
				"type" : "TEXT",
				"implicit" : 1
			}
 ],
		"autosave" : 0
	}

}
